<svg version="1.1" xmlns="http://www.w3.org/2000/svg" xmlns:xlink="http://www.w3.org/1999/xlink" width="146.79672" height="111.26777" viewBox="0,0,146.79672,111.26777"><g transform="translate(-122.62865,-113.23225)"><g data-paper-data="{&quot;isPaintingLayer&quot;:true}" fill-rule="nonzero" stroke-linecap="butt" stroke-linejoin="miter" stroke-miterlimit="10" stroke-dasharray="" stroke-dashoffset="0" style="mix-blend-mode: normal"><path d="M171.08014,187.88677c-2.53204,3.79806 -4.61304,7.85008 -7.11274,11.65578c-1.46289,2.2272 -3.37464,4.15737 -4.69459,6.49881c-2.01843,3.58048 -3.49226,6.71366 -6.4695,9.69089c-1.5,1.5 -3,3 -4.5,4.5c-0.58926,0.58926 -0.95503,1.58365 -1.76777,1.76777l-1.76777,1.76777c-0.45241,0.45241 -1.07741,0.73223 -1.76777,0.73223c-1.38071,0 -2.5,-1.11929 -2.5,-2.5v-3h0.00915c0.01407,-1.88176 0.00188,-3.66395 -0.44332,-5.56382c-1.16193,-5.5475 0.23198,-11.37129 -0.85639,-16.90219c-0.56548,-2.87365 -2.21458,-5.52098 -2.70704,-8.4247c-1.23922,-7.30681 -1.81926,-14.83426 -4.4654,-21.89066c-2.74049,-7.30796 -4.47219,-14.62402 -5.99815,-22.27689c-0.99358,-4.98293 -2.2404,-9.59082 -2.52355,-14.66566c-0.21221,-3.80337 -1.61855,-7.87199 -0.387,-11.56665c1.51355,-3.39634 2.04523,-4.4772 6.63948,-4.4772c0.25262,0 1.31623,1.44651 1.61898,1.68764c1.45864,1.16172 3.09813,1.9771 4.73128,2.84406c5.68085,3.01566 10.405,9.12613 14.88197,13.70053c1.98795,2.03122 4.48473,3.2557 6.08013,5.64878c0.45448,0.7376 1.74717,2.47819 1.79158,3.59618c0.00657,0.16546 -0.52637,0.1127 -0.43057,0.24775c0.76891,1.08388 2.26796,1.45783 3.13011,2.46912c0.85143,0.99871 0.95774,2.50031 1.8155,3.49358c2.15073,2.4905 4.59976,3.13607 6.03861,6.47379c0.47569,1.10347 0.39852,2.38532 0.82146,3.51007c1.47434,3.92081 3.15354,7.60025 5.51411,10.94839c0.08242,-2.05598 -0.26093,-4.40227 -0.26093,-6.35211c0,-4.66667 0,-9.33333 0,-14c0,-0.90306 -0.53482,-4.95141 0,-5.5c4.04628,-4.15039 8.60652,-2.78068 13.5,-3.5c3.96797,-0.58328 6.46404,-2.07004 10.60634,-1.42536c5.66687,1.41672 10.99305,2.42223 16.86014,2.42411c1.0599,0.00034 2.3779,0.1666 3.60567,0.18037c-0.33173,-0.36899 -0.57215,-0.90384 -0.57215,-1.67912c0,-1.48852 0.88627,-2.09076 1.60343,-2.33442c0.05273,-0.02026 0.10631,-0.03879 0.16069,-0.05551l2.94531,-0.98177l0.29057,0.87171h2.5v0.33797c1.43474,0.18143 2.85106,0.41877 4.30321,0.66849c0.22898,-0.00445 0.46107,-0.00647 0.69679,-0.00647l1.22634,0.01027c0,0 0.71024,0.06457 1.33755,0.50407c1.35293,0.09327 3.72651,0.12553 4.58091,0.48986c3.54345,1.51096 6.14431,4.48664 9.3552,6.4958c1.93426,1.21034 4.40688,1.48853 6.29057,2.62829c1.50023,0.90774 2.74377,2.37051 3.9772,3.60394c3.38393,3.38393 5.44287,7.36373 6.60394,11.9772c0.432,1.71651 0.45242,3.54081 1.06032,5.20318c0.31766,0.86868 1.37967,1.34116 1.66213,2.22192c0.44629,1.39162 0.1933,2.91957 0.40584,4.36547c0.18929,1.2877 0.92536,2.00226 0.92536,3.39366c0,5.77756 -3.64089,11.59715 -7.92536,15.10634c-1.59333,1.19499 -3.3209,2.67146 -5.11325,3.58013c-1.63975,0.8313 -3.58842,1.05257 -5.10066,2.09802c-0.72781,0.50316 -0.50998,1.8973 -1.28619,2.32199c-1.75837,0.96206 -4.51457,1.48322 -6.59609,1.68185c-5.10012,0.48667 -10.28728,0.31802 -15.40381,0.31802c-1.9919,0 -4.9385,-0.55617 -6.70943,0.37171c-6.32352,2.10784 -15.96249,0.68672 -22.30624,-0.37176c-1.29539,-0.21614 -2.47378,-0.94974 -3.77489,-1.12824c-3.90553,-0.5358 -8.27086,1.28396 -11.91886,2.5c-4.71287,1.57096 -5.86589,-5.2223 -6.71724,-8.46225c-0.47024,-1.78959 -1.51761,-3.68555 -1.89125,-5.47284c-0.55277,-2.64417 -0.22568,-5.71768 -0.18589,-8.43848c-1.10982,2.12306 -2.0672,4.36532 -3.41607,6.38861zM165.75319,159.09629c-0.54154,-1.44949 -0.57378,-3.06567 -1.17854,-4.48993c-0.85819,-2.02112 -2.67724,-2.09912 -3.96139,-3.52621c-1.35452,-1.50529 -2.06331,-3.50101 -3.32946,-5.08135c-0.41103,-0.51302 -1.33637,-0.42571 -1.72493,-0.95596c-1.24116,-1.69373 -1.39482,-3.56873 -2.63898,-5.15607c-1.35523,-2.03285 -3.64509,-3.10817 -5.45541,-4.88675c-3.79139,-3.72493 -7.76986,-9.32405 -12.23223,-12.23223c-2.10365,-1.37097 -4.59118,-2.06009 -6.61898,-3.68764c-0.15066,-0.12092 -0.2953,-0.24878 -0.43646,-0.38061c-0.19442,0.18681 -0.34656,0.38243 -0.30508,0.59106c-0.95198,2.85594 0.44335,6.38982 0.613,9.43335c0.27625,4.95583 1.47835,9.35786 2.45703,14.23724c1.48189,7.38819 3.13154,14.44758 5.77689,21.50185c2.82662,7.53765 3.50836,15.60061 4.77898,23.4277c0.38494,2.37127 1.98514,4.67323 2.45524,7.06214c1.11342,5.65814 -0.54433,11.84099 0.98111,17.34257c0.29466,1.25745 0.43814,2.4959 0.50712,3.73844c1.61526,-1.569 3.32743,-3.10738 4.79116,-4.80163c2.04988,-2.37272 3.00237,-4.62157 4.49497,-7.27357c1.51963,-2.70004 3.62716,-4.93485 5.30541,-7.50119c2.41951,-3.69985 4.42578,-7.652 6.88726,-11.34422c2.57967,-3.86951 3.8156,-8.21808 7.05098,-11.61325h-1.97086v-2.24805l-2.07565,-2.59456l0.26001,-0.20801c-1.78435,-2.93979 -3.21458,-6.09674 -4.43118,-9.35311zM231.09998,141.53686c-3.39938,0.28118 -5.60312,2.09958 -9.09997,2.96315c-1.60264,0.39578 -3.8692,0.00088 -5.53759,-0.00125c-6.27197,-0.00802 -12.0132,-1.05951 -18.06875,-2.57339c-2.04253,-1.29714 -7.036,1.24471 -9.39366,1.57464c-1.86351,0.26078 -3.83297,0.12358 -5.72852,0.36052c-0.8269,0.10336 -1.78881,0.77456 -2.48069,0.31009c-0.60609,-0.40688 0.33885,-1.80119 -0.29078,-2.17061c-0.575,-0.33737 0,1.33333 0,2c0,1.66667 0,3.33333 0,5c0,4.16667 0,8.33333 0,12.5c0,6.68536 -1,12.85034 -1,19.5c0,2.01238 -0.60206,5.16551 -0.18208,7.06338c0.61691,2.78778 1.94609,5.64736 2.71229,8.4422c0.20657,0.7535 0.99849,1.57429 0.75063,2.26715c4.5195,-1.48932 9.20126,-2.84857 14.00973,-2.14443c0.78819,0.11542 1.43949,0.73995 2.22511,0.87176c4.56836,0.76647 9.32754,0.99995 13.98432,0.99995c2.2606,0 4.58361,0.3369 6.70943,-0.37171c6.43951,-1.76632 14.04009,-0.48922 20.72286,-0.79738c1.58525,-0.0731 3.15753,-0.58038 4.73928,-0.45224c0.34405,0.02787 0.51655,0.76889 0.82853,0.62119c1.57911,-0.7476 2.01553,-2.93722 3.42904,-3.9641c0.63782,-0.46336 3.36458,-1.20467 4.18411,-1.61589c1.69909,-0.85255 3.38466,-2.29331 4.88675,-3.41987c2.47708,-1.54701 6.07464,-6.8845 6.07464,-9.89366c0,-1.57668 -0.85613,-3.04488 -1.07464,-4.60634c-0.0778,-0.55597 0.59543,-1.10613 0.40584,-1.63453c-0.52109,-1.45235 -1.82739,-2.53036 -2.37671,-3.97227c-1.14509,-3.00572 -0.87102,-7.05153 -2.52913,-9.89319c-0.97207,-1.66594 -2.40202,-3.36649 -3.76777,-4.73223c-0.34257,-0.34257 -1.81996,-2.2767 -2.0228,-2.39606c-2.36914,-1.39406 -5.29563,-1.86455 -7.70943,-3.37171c-1.95441,-1.22032 -4.32748,-2.9164 -6,-4.5c-0.28886,-0.2735 -0.28925,-0.8258 -0.6448,-1.0042c-1.16347,-0.58376 -4.54615,-0.40784 -5.80021,-0.61882c-0.66984,-0.11269 -1.31899,-0.22742 -1.95502,-0.34013z" fill="#000000" stroke="none" stroke-width="0.5"/><path d="M170.23429,168.45219l-0.26004,0.20858l2.07494,2.6002l-0.00115,2.25292l1.97116,-0.0011c-3.23539,3.39517 -4.48598,7.76793 -7.06566,11.63744c-2.46148,3.69222 -4.48623,7.65505 -6.90574,11.3549c-1.67825,2.56633 -3.79558,4.80322 -5.31521,7.50326c-1.49259,2.652 -2.45108,4.90114 -4.50096,7.27386c-1.46372,1.69424 -3.18072,3.23234 -4.79599,4.80134c-0.06898,-1.24253 -0.21346,-2.48111 -0.50812,-3.73856c-1.52544,-5.50158 0.12676,-11.68547 -0.98665,-17.34361c-0.47009,-2.38891 -2.07888,-4.69384 -2.46382,-7.0651c-1.27062,-7.82709 -1.98076,-15.94575 -4.80738,-23.4834c-2.64535,-7.05428 -4.27755,-14.14235 -5.75944,-21.53054c-0.97868,-4.87938 -2.17423,-9.28591 -2.45048,-14.24174c-0.16965,-3.04353 -1.5615,-6.57924 -0.60952,-9.43518c-0.04148,-0.20862 0.11111,-0.40446 0.30553,-0.59127c0.14116,0.13184 0.286,0.2596 0.43666,0.38052c2.0278,1.62755 4.51974,2.3149 6.62339,3.68587c4.46238,2.90819 8.45222,8.50478 12.24361,12.22971c1.81031,1.77858 4.10916,2.8538 5.46439,4.88665c1.24416,1.58734 1.40441,3.46331 2.64558,5.15703c0.38856,0.53024 1.31799,0.444 1.72902,0.95702c1.26615,1.58034 1.98623,3.58111 3.34074,5.08639c1.28415,1.42709 3.11405,1.51395 3.97224,3.53507c0.60476,1.42427 0.64405,3.05022 1.18559,4.49971c1.2166,3.25637 2.65296,6.44025 4.43732,9.38004z" data-paper-data="{&quot;noHover&quot;:false,&quot;origItem&quot;:[&quot;Path&quot;,{&quot;applyMatrix&quot;:true,&quot;segments&quot;:[[[165.75318,159.09627],[1.2166,3.25637],[-0.54154,-1.44949]],[[164.57464,154.60634],[0.60476,1.42427],[-0.85819,-2.02112]],[[160.61325,151.08013],[1.28415,1.42709],[-1.35452,-1.50529]],[[157.28379,145.99877],[1.26615,1.58034],[-0.41103,-0.51302]],[[155.55886,145.04282],[0.38856,0.53024],[-1.24116,-1.69373]],[[152.91987,139.88675],[1.24416,1.58734],[-1.35523,-2.03285]],[[147.46447,135],[1.81031,1.77858],[-3.79139,-3.72493]],[[135.23223,122.76777],[4.46238,2.90819],[-2.10365,-1.37097]],[[128.61325,119.08013],[2.0278,1.62755],[-0.15066,-0.12092]],[[128.17679,118.69951],[0.14116,0.13184],[-0.19442,0.18681]],[[127.87171,119.29057],[-0.04148,-0.20862],[-0.95198,2.85594]],[[128.48471,128.72392],[-0.16965,-3.04353],[0.27625,4.95583]],[[130.94174,142.96116],[-0.97868,-4.87938],[1.48189,7.38819]],[[136.71863,164.46301],[-2.64535,-7.05428],[2.82662,7.53765]],[[141.49761,187.89071],[-1.27062,-7.82709],[0.38494,2.37127]],[[143.95285,194.95285],[-0.47009,-2.38891],[1.11342,5.65814]],[[144.93395,212.29542],[-1.52544,-5.50158],[0.29466,1.25745]],[[145.44108,216.03386],[-0.06898,-1.24253],[1.61526,-1.569]],[[150.23223,211.23223],[-1.46372,1.69424],[2.04988,-2.37272]],[[154.7272,203.95866],[-1.49259,2.652],[1.51963,-2.70004]],[[160.03261,196.45747],[-1.67825,2.56633],[2.41951,-3.69985]],[[166.91987,185.11325],[-2.46148,3.69222],[2.57967,-3.86951]],[[173.97086,173.5],[-3.23539,3.39517],[0,0]],[172,173.5],[172,171.25195],[169.92435,168.65739],[[170.18436,168.44939],[0,0],[-1.78435,-2.93979]]],&quot;closed&quot;:true}]}" fill="#74be00" stroke="none" stroke-width="0.5"/><path d="M233.07339,141.83051c1.25405,0.21098 4.64451,0.03895 5.80798,0.62271c0.35555,0.1784 0.35736,0.7316 0.64622,1.0051c1.67252,1.5836 4.05449,3.28719 6.00889,4.5075c2.4138,1.50716 5.34671,1.98614 7.71584,3.3802c0.20285,0.11936 1.68222,2.05715 2.02479,2.39972c1.36574,1.36574 2.79852,3.07336 3.77059,4.7393c1.6581,2.84166 1.38629,6.90023 2.53137,9.90595c0.54932,1.44191 1.85561,2.52477 2.37669,3.97712c0.18959,0.52841 -0.48379,1.08054 -0.40598,1.63651c0.21851,1.56146 1.0739,3.03477 1.0739,4.61145c0,3.00916 -3.6019,8.35934 -6.07899,9.90634c-1.50209,1.12657 -3.19113,2.57321 -4.89022,3.42576c-0.81953,0.41121 -3.5494,1.1566 -4.18722,1.61996c-1.4135,1.02689 -1.85497,3.22165 -3.43408,3.96925c-0.31198,0.1477 -0.4847,-0.59312 -0.82875,-0.62099c-1.58175,-0.12815 -3.15869,0.38274 -4.74394,0.45584c-6.68277,0.30816 -14.31541,-0.96039 -20.75492,0.80594c-2.12582,0.70861 -4.45992,0.36957 -6.72051,0.36957c-4.65678,0 -9.4331,-0.24284 -14.00146,-1.0093c-0.78561,-0.13181 -1.43924,-0.75841 -2.22743,-0.87382c-4.80847,-0.70413 -9.49619,0.64835 -14.01569,2.13767c0.24785,-0.69285 -0.54542,-1.5156 -0.75199,-2.2691c-0.76619,-2.79484 -2.09976,-5.66261 -2.71667,-8.45039c-0.41998,-1.89787 0.17973,-5.058 0.17973,-7.07037c0,-6.64966 0.9995,-12.83728 0.9995,-19.52264c0,-4.16667 0.00442,-8.34586 0.00442,-12.51253c0,-1.66667 0.00225,-3.33729 0.00225,-5.00395c0,-0.66667 -0.4914,-2.28252 0.0836,-1.94515c0.62963,0.36942 -0.31439,1.76233 0.2917,2.16921c0.69189,0.46447 1.57022,-0.2616 2.39711,-0.36496c1.89555,-0.23694 3.8675,-0.10308 5.73101,-0.36386c2.35766,-0.32993 7.35799,-2.87873 9.40053,-1.58159c6.05555,1.51389 11.81844,2.55489 18.09041,2.56291c1.66838,0.00213 3.94551,0.39596 5.54815,0.00017c3.49684,-0.86357 5.71569,-2.67955 9.11506,-2.96073c0.63603,0.11271 1.28823,0.22853 1.95806,0.34122z" data-paper-data="{&quot;noHover&quot;:false,&quot;origItem&quot;:[&quot;Path&quot;,{&quot;applyMatrix&quot;:true,&quot;segments&quot;:[[[231.09997,141.53685],[0.63603,0.11271],[-3.39938,0.28118]],[[222,144.5],[3.49684,-0.86357],[-1.60264,0.39578]],[[216.46241,144.49875],[1.66838,0.00213],[-6.27197,-0.00802]],[[198.39366,141.92536],[6.05555,1.51389],[-2.04253,-1.29714]],[[189,143.5],[2.35766,-0.32993],[-1.86351,0.26078]],[[183.27148,143.86052],[1.89555,-0.23694],[-0.8269,0.10336]],[[180.79078,144.17061],[0.69189,0.46447],[-0.60609,-0.40688]],[[180.5,142],[0.62963,0.36942],[-0.575,-0.33737]],[[180.5,144],[0,-0.66667],[0,1.66667]],[[180.5,149],[0,-1.66667],[0,4.16667]],[[180.5,161.5],[0,-4.16667],[0,6.68536]],[[179.5,181],[0,-6.64966],[0,2.01238]],[[179.31792,188.06338],[-0.41998,-1.89787],[0.61691,2.78778]],[[182.0302,196.50558],[-0.76619,-2.79484],[0.20657,0.7535]],[[182.78084,198.77273],[0.24785,-0.69285],[4.5195,-1.48932]],[[196.79057,196.62829],[-4.80847,-0.70413],[0.78819,0.11542]],[[199.01568,197.50005],[-0.78561,-0.13181],[4.56836,0.76647]],[[213,198.5],[-4.65678,0],[2.2606,0]],[[219.70943,198.12829],[-2.12582,0.70861],[6.43951,-1.76632]],[[240.43229,197.33091],[-6.68277,0.30816],[1.58525,-0.0731]],[[245.17157,196.87868],[-1.58175,-0.12815],[0.34405,0.02787]],[[246.0001,197.49986],[-0.31198,0.1477],[1.57911,-0.7476]],[[249.42914,193.53576],[-1.4135,1.02689],[0.63782,-0.46336]],[[253.61325,191.91987],[-0.81953,0.41121],[1.69909,-0.85255]],[[258.5,188.5],[-1.50209,1.12657],[2.47708,-1.54701]],[[264.57464,178.60634],[0,3.00916],[0,-1.57668]],[[263.5,174],[0.21851,1.56146],[-0.0778,-0.55597]],[[263.90584,172.36547],[0.18959,0.52841],[-0.52109,-1.45235]],[[261.52913,168.39319],[0.54932,1.44191],[-1.14509,-3.00572]],[[259,158.5],[1.6581,2.84166],[-0.97207,-1.66594]],[[255.23223,153.76777],[1.36574,1.36574],[-0.34257,-0.34257]],[[253.20943,151.37171],[0.20285,0.11936],[-2.36914,-1.39406]],[[245.5,148],[2.4138,1.50716],[-1.95441,-1.22032]],[[239.5,143.5],[1.67252,1.5836],[-0.28886,-0.2735]],[[238.8552,142.4958],[0.35555,0.1784],[-1.16347,-0.58376]],[[233.05499,141.87698],[1.25405,0.21098],[-0.66984,-0.11269]]],&quot;closed&quot;:true}]}" fill="#74be00" stroke="none" stroke-width="0.5"/><path d="M192.9634,171.53907c0,-13.63774 11.05557,-24.69331 24.69331,-24.69331c13.63774,0 24.69331,11.05557 24.69331,24.69331c0,13.63774 -11.05557,24.69331 -24.69331,24.69331c-13.63774,0 -24.69331,-11.05557 -24.69331,-24.69331z" fill="#000000" stroke="#000000" stroke-width="2"/><path d="M197.95078,165.93891c-0.31003,0.31878 -0.7869,0.55595 -1.51774,0.4818c-1.88979,-0.19171 -1.69808,-2.0815 -1.69808,-2.0815c0.38412,-3.15459 2.09877,-6.18276 4.69775,-8.18433c1.16448,-0.8968 2.69607,-1.18182 3.98218,-1.89329c1.00826,-0.55776 3.23691,-3.01918 4.08546,-2.86776c1.39829,0.24952 2.2207,1.80609 3.10749,2.91563c1.1557,1.446 1.54236,3.94214 2.4522,5.57187c0.92084,1.64943 3.63077,4.25748 3.87,6.1326c0.36959,2.89685 -1.97388,4.16429 -3.12105,6.33361l-0.33012,1.71382c-0.15626,0.90139 -0.94688,1.58248 -1.89129,1.57262c-0.80563,-0.00841 -1.48887,-0.51717 -1.75758,-1.22796l-0.68888,-1.70318c-1.59904,-1.65305 -3.29736,-3.12185 -5.4584,-4.28829c-1.33391,-0.71998 -4.65362,-1.2874 -5.73194,-2.47565z" fill="#fbff00" stroke="none" stroke-width="0.5"/><path d="M231.1817,167.89593c-2.3264,0.78648 -4.2475,1.94883 -6.10171,3.30949l-0.96544,1.56311c-0.38439,0.65549 -1.14345,1.04213 -1.93902,0.91497c-0.93262,-0.14907 -1.59748,-0.95339 -1.59996,-1.86823l-0.03727,-1.74493c-0.7661,-2.33131 -2.8631,-3.97473 -2.01171,-6.7682c0.5511,-1.8082 3.66095,-3.9235 4.84601,-5.39462c1.1709,-1.45355 1.97175,-3.84914 3.35412,-5.08024c1.06072,-0.94465 2.13313,-2.34079 3.55347,-2.35165c0.86193,-0.00659 2.64501,2.7945 3.54513,3.51385c1.14817,0.91758 2.61005,1.45605 3.60716,2.53588c2.22545,2.41006 3.40655,5.68341 3.2548,8.85768c0,0 -0.12876,1.89512 -2.02388,1.76636c-0.7329,-0.04979 -1.1631,-0.36376 -1.41512,-0.73013c-1.26276,0.99004 -4.63061,0.99121 -6.06658,1.47667z" data-paper-data="{&quot;index&quot;:null}" fill="#fbff00" stroke="none" stroke-width="0.5"/><path d="M224.98552,191.58028c0.4434,0.03369 0.93108,0.24775 1.34256,0.85627c1.064,1.57352 -0.50952,2.63751 -0.50952,2.63751c-2.66773,1.72691 -6.09114,2.35144 -9.29329,1.6392c-1.43472,-0.31912 -2.6351,-1.31215 -4.00551,-1.84342c-1.07435,-0.4165 -4.39213,-0.54976 -4.81974,-1.29817c-0.70463,-1.23328 -0.03683,-2.86218 0.24654,-4.25401c0.36931,-1.81388 2.0376,-3.71046 2.70551,-5.45337c0.67598,-1.76398 0.94121,-5.51568 2.22728,-6.90108c1.98684,-2.14029 4.46168,-1.15368 6.86212,-1.66339l1.52715,-0.84497c0.79208,-0.45775 1.82161,-0.28736 2.41931,0.44392c0.50987,0.62381 0.55722,1.47435 0.18381,2.13616l-0.86591,1.62036c-0.24411,2.2869 -0.28315,4.53193 0.20647,6.93837c0.30222,1.48538 1.99425,4.39734 1.77321,5.98663z" fill="#fbff00" stroke="none" stroke-width="0.5"/><path d="M210.11775,172.52115c0,-3.96772 3.21647,-7.18419 7.18419,-7.18419c3.96772,0 7.18419,3.21647 7.18419,7.18419c0,3.96772 -3.21647,7.18419 -7.18419,7.18419c-3.96772,0 -7.18419,-3.21647 -7.18419,-7.18419z" fill="#000000" stroke="none" stroke-width="0"/><path d="M212.41046,172.50137c0,-2.74312 2.22373,-4.96685 4.96685,-4.96685c2.74312,0 4.96685,2.22373 4.96685,4.96685c0,2.74312 -2.22373,4.96685 -4.96685,4.96685c-2.74312,0 -4.96685,-2.22374 -4.96685,-4.96685z" fill="#fbff00" stroke="none" stroke-width="0"/></g></g></svg>