<svg version="1.1" xmlns="http://www.w3.org/2000/svg" xmlns:xlink="http://www.w3.org/1999/xlink" width="172.00001" height="109.54284" viewBox="0,0,172.00001,109.54284"><g transform="translate(-154,-125.22859)"><g data-paper-data="{&quot;isPaintingLayer&quot;:true}" fill-rule="nonzero" stroke-linecap="butt" stroke-linejoin="miter" stroke-miterlimit="10" stroke-dasharray="" stroke-dashoffset="0" style="mix-blend-mode: normal"><path d="M158.91429,234.77144c-2.71409,0 -4.91429,-1.12101 -4.91429,-2.50383v-104.53518c0,-1.38283 2.2002,-2.50383 4.91429,-2.50383h162.17143c2.71409,0 4.91429,1.12101 4.91429,2.50383v104.53518c0,1.38283 -2.2002,2.50383 -4.91429,2.50383z" fill="#fbff00" stroke="none" stroke-width="0"/><text transform="translate(192.24772,223.63083) scale(0.26529,0.34187)" font-size="40" xml:space="preserve" fill="#000000" fill-rule="nonzero" stroke="none" stroke-width="1" stroke-linecap="butt" stroke-linejoin="miter" stroke-miterlimit="10" stroke-dasharray="" stroke-dashoffset="0" font-family="Arcade" font-weight="normal" text-anchor="start" style="mix-blend-mode: normal"><tspan x="0" dy="0">Try again</tspan></text><path d="M211.32251,171.47426c0,-15.83814 12.83935,-28.67749 28.67749,-28.67749c15.83814,0 28.67749,12.83935 28.67749,28.67749c0,15.83814 -12.83935,28.67749 -28.67749,28.67749c-15.83814,0 -28.67749,-12.83935 -28.67749,-28.67749z" fill="none" stroke="#000000" stroke-width="2.5"/><path d="M242.24254,201.20069c-0.79057,2.37171 -3.16227,1.58114 -3.16227,1.58114l-1.53464,-0.64678c-1.67033,-0.00191 -4.99151,0.15528 -6.51905,-0.68007c-1.77605,0.15183 -3.5346,-0.06099 -5.12951,-0.98508c-1.00961,-0.58497 -1.49053,-1.79564 -2.2358,-2.69347l-1.15666,-1.54222c-7.26961,-4.15711 -13.25104,-10.32191 -14.0611,-19.38662c-0.47524,-5.31802 1.15142,-9.9749 2.91203,-14.79658l-0.06622,-0.66221l0.05157,-0.00516c-0.02268,-0.08073 -0.04404,-0.16191 -0.06398,-0.2436c-0.80822,-3.31092 1.98944,-6.63537 3.78217,-8.94992l0.24213,-0.08514l-0.07029,-0.08034l2.05773,-1.80052c0.44092,-0.38989 1.02051,-0.62653 1.65537,-0.62653c0.15545,0 0.3076,0.01418 0.4552,0.04134c0.13591,-0.42138 0.1827,-0.89334 0.32388,-1.31173c0,0 0.92847,-2.32119 3.24966,-1.39271c2.32119,0.92847 1.39271,3.24966 1.39271,3.24966c-0.47109,1.07675 -0.6892,2.3045 -1.41328,3.23027c-0.57739,0.73822 -1.75183,0.83148 -2.3365,1.56396c-1.38105,1.7302 -2.33446,5.34584 -3.26248,7.43536l-1.01024,2.27305c-0.28192,0.67467 -0.85108,1.19941 -1.55464,1.42139c-0.58175,1.6852 -1.07551,3.38474 -1.4078,5.11c-1.40902,7.31555 3.067,15.58048 9.02381,19.62399c0.59904,0.40663 1.27142,0.6665 1.96764,0.88085c0.25323,0.02625 0.49523,0.09031 0.72027,0.18642l0.17152,0.06861c0.77516,0.21249 1.55384,0.42171 2.27094,0.7608c0.10703,0.05061 0.21328,0.10291 0.31888,0.15662c0.81155,0.09888 1.56866,0.24999 2.18208,0.48174c1.20653,0.45583 2.54774,0.83616 3.44396,1.76368c0.19438,0.20117 0.24997,0.47374 0.26314,0.76903c0.20774,0.09378 0.41546,0.18755 0.6232,0.28133l2.33275,0.46655c0.45589,0.08188 0.86888,0.28736 1.20305,0.58051l2.75963,0.8001c0,0 2.37171,0.79057 1.58114,3.16228z" fill="#fbff00" stroke="none" stroke-width="0.5"/><path d="M232.33673,148.22226c0,1.25 -1.25,1.25 -1.25,1.25c-2.23908,0 -4.99488,0 -7.23396,0c0,0 -1.25,0 -1.25,-1.25c0,-0.40718 0.13264,-0.68173 0.3115,-0.86684c0.01932,-0.07176 0.03626,-0.11411 0.03626,-0.11411c0.50255,-1.24158 0.69262,-2.07475 0.68566,-3.4111l0.3225,-1.17035c0,0 0.39528,-1.18585 1.58114,-0.79057c1.18585,0.39528 0.79057,1.58114 0.79057,1.58114l-0.19421,0.37978c-0.00508,1.18219 -0.14088,2.13169 -0.44367,3.14205c1.62583,0 3.25166,0 4.87749,0h0.51671c0,0 1.25,0 1.25,1.25z" fill="#000000" stroke="none" stroke-width="0.5"/><path d="M240.94603,199.89341c0,-0.69036 0.55964,-1.25 1.25,-1.25c0.69036,0 1.25,0.55964 1.25,1.25c0,0.69036 -0.55964,1.25 -1.25,1.25c-0.69036,0 -1.25,-0.55964 -1.25,-1.25z" fill="#000000" stroke="none" stroke-width="0.5"/></g></g></svg>