<svg version="1.1" xmlns="http://www.w3.org/2000/svg" xmlns:xlink="http://www.w3.org/1999/xlink" width="26.33334" height="26.33334" viewBox="0,0,26.33334,26.33334"><g transform="translate(-226.83334,-166.83334)"><g data-paper-data="{&quot;isPaintingLayer&quot;:true}" fill-rule="nonzero" stroke-linejoin="miter" stroke-miterlimit="10" stroke-dasharray="" stroke-dashoffset="0" style="mix-blend-mode: normal"><path d="M226.83335,180.00002c0,-7.27175 5.89492,-13.16667 13.16667,-13.16667c7.27175,0 13.16667,5.89492 13.16667,13.16667c0,7.27175 -5.89492,13.16667 -13.16667,13.16667c-7.27175,0 -13.16667,-5.89492 -13.16667,-13.16667z" fill="#ff0000" stroke="none" stroke-width="NaN" stroke-linecap="butt"/><path d="M231.75,180c0,-4.55635 3.69365,-8.25 8.25,-8.25c4.55635,0 8.25,3.69365 8.25,8.25c0,4.55635 -3.69365,8.25 -8.25,8.25c-4.55635,0 -8.25,-3.69365 -8.25,-8.25z" fill="none" stroke="#ffffff" stroke-width="2.5" stroke-linecap="butt"/><path d="M237.28493,169.90961c2.87145,-1.0869 10.1307,-0.16425 9.48358,3.38016c-0.21285,1.16584 -3.43111,4.36015 -4.78582,2.7676c-0.35745,-0.4202 -0.48158,-1.17408 -1.0174,-1.30534c-0.69018,-0.16907 -0.71087,1.29588 -1.30505,1.68561c-1.13232,0.7427 -2.65569,0.51148 -3.76447,0.0116c-3.01476,-1.35915 -5.03215,-6.56038 -0.08356,-5.42179c0.03013,-0.00484 0.06049,-0.00906 0.09108,-0.01265c0.81658,-0.09587 0.59916,-0.80902 1.38164,-1.10521z" fill="#ff0000" stroke="none" stroke-width="0.5" stroke-linecap="butt"/><path d="M240,170.8125v8.125" fill="none" stroke="#ffffff" stroke-width="2.5" stroke-linecap="round"/></g></g></svg>