<svg version="1.1" xmlns="http://www.w3.org/2000/svg" xmlns:xlink="http://www.w3.org/1999/xlink" width="126.38985" height="122.21368" viewBox="0,0,126.38985,122.21368"><g transform="translate(-176.80508,-130.50789)"><g data-paper-data="{&quot;isPaintingLayer&quot;:true}" stroke="none" stroke-width="1" stroke-linecap="butt" stroke-linejoin="miter" stroke-miterlimit="10" stroke-dasharray="" stroke-dashoffset="0" style="mix-blend-mode: normal"><g><path d="M190.50789,179.904c0,-27.28072 22.11539,-49.39611 49.39611,-49.39611c27.28072,0 49.39611,22.11539 49.39611,49.39611c0,27.28072 -22.11539,49.39611 -49.39611,49.39611c-27.28072,0 -49.39611,-22.11539 -49.39611,-49.39611z" fill="#0077b8" fill-rule="evenodd"/><path d="M191.21683,171.54596c-0.08097,0.47323 -0.15475,0.95006 -0.22132,1.42689c0.06658,-0.48583 0.14035,-0.96266 0.22132,-1.42689z" fill="#74b140" fill-rule="evenodd"/><path d="M191.6055,170.99535c-0.14782,0.16689 -0.27918,0.34767 -0.39226,0.53981c0.06478,-0.37667 0.13315,-0.75093 0.20513,-1.1228v-0.0108c0.07377,-0.37427 0.15115,-0.74494 0.23212,-1.11561c0.11759,0.04796 0.22689,0.11415 0.32389,0.19613c0.19973,0.17094 0.41925,0.47683 0.35987,0.75753c-0.07018,0.33468 -0.50382,0.51282 -0.72874,0.75573z" fill="#74b140" fill-rule="evenodd"/><path d="M197.16193,156.13801c-0.24967,0.23312 -0.54161,0.41635 -0.8601,0.53981c0.18114,-0.34188 0.36707,-0.68016 0.5578,-1.01484c1.33045,-2.34432 2.85059,-4.57579 4.54519,-6.67204c0.2735,-0.33948 0.5512,-0.67596 0.83311,-1.00944c0.34764,0.09678 0.65764,0.29697 0.88889,0.574c0.35268,0.43005 0.2951,0.65857 0.06838,1.01844c0.209,-0.02588 0.41392,-0.07787 0.60998,-0.15475c0.23604,-0.06095 0.4837,-0.06095 0.71975,0c0.46783,0.13135 0.8385,0.49842 1.1228,0.87629c0.46244,0.61358 0.75753,1.34772 1.09401,2.03508l1.06882,2.18263c0.30589,0.62258 0.88709,1.9703 -0.0126,2.42194c-0.33427,0.1451 -0.72233,0.08334 -0.99505,-0.15834c-0.19253,-0.14575 -0.46963,-0.5704 -0.74494,-0.69635c0.09201,0.77294 0.30705,1.52619 0.63697,2.23121c0.05345,0.09929 0.04359,0.22072 -0.02519,0.31009c-0.06877,0.08937 -0.18363,0.13 -0.2933,0.10376c-0.25259,-0.05518 -0.51343,-0.06129 -0.76833,-0.01799c0.12955,0.59559 0.11696,1.20917 -0.42285,1.61043c-0.07584,0.0431 -0.16728,0.049 -0.24803,0.016c-0.08075,-0.033 -0.14188,-0.10125 -0.16583,-0.18514c-0.56879,-1.70308 -1.85106,-3.07403 -3.51236,-3.75527c-0.11456,-0.04027 -0.19121,-0.14848 -0.19121,-0.2699c0,-0.12143 0.07665,-0.22963 0.19121,-0.2699c0.64057,-0.16914 1.33333,-0.15475 1.95591,-0.38686c0.32671,-0.10211 0.60823,-0.31372 0.79712,-0.59919c0.15654,-0.2933 -0.0036,-0.58839 -0.08997,-0.88529c-0.30229,-1.03104 -0.74674,-2.45613 -2.05847,-2.48492c-1.27215,-0.03419 -1.00225,1.52406 -1.33153,2.33917c-0.2825,0.67296 -0.87089,1.18038 -1.61943,0.92667c-0.2717,-0.09177 -0.5704,-0.32748 -0.8475,-0.12416c-0.14781,0.14678 -0.26147,0.32433 -0.33288,0.52002c-0.16374,0.34548 -0.29869,0.70175 -0.5704,0.97885z" fill="#74b140" fill-rule="evenodd"/><path d="M215.12137,202.39424c0.43005,1.49707 -1.16779,2.27799 -1.65182,3.47637c-0.59199,1.45928 -0.0126,3.12549 -0.67116,4.58658c-0.26332,0.59128 -0.74109,1.06069 -1.33693,1.31354c-0.72874,0.32568 -1.46828,0.48583 -2.05667,1.06342c-1.07602,1.05623 -1.51686,2.69005 -2.22581,4.06476c-0.5704,-0.49842 -1.11021,-1.01304 -1.65002,-1.53666c-0.89248,-0.86549 -1.75618,-1.75798 -2.58029,-2.68825c-1.32586,-1.49299 -2.56008,-3.06492 -3.69589,-4.70713c-2.96096,-4.27793 -5.22394,-8.99885 -6.70443,-13.98645l0.01979,0.0108c1.09041,-0.88889 1.76697,-2.70804 3.45118,-2.24201c0.08356,0.025 0.15127,0.08652 0.18415,0.16731c0.03287,0.08078 0.02735,0.17211 -0.01501,0.24835c-0.04498,0.09717 -0.08817,0.19613 -0.13315,0.2951l2.87898,0.36887c0.79532,0.10076 1.84795,0.05218 2.41475,0.70535c0.24291,0.2807 0.36707,0.64237 0.60279,0.92667c0.29729,0.32651 0.67519,0.56913 1.09581,0.70355c0.69275,0.25731 1.45029,0.34368 2.13225,0.64237c0.5744,0.22709 1.0711,0.61507 1.43049,1.1174c0.15794,0.23625 0.25612,0.50733 0.2861,0.78992c0.04139,0.42105 -0.10616,0.65857 0.31489,0.94467c0.42105,0.2861 0.94467,0.48403 1.3999,0.71975c0.37967,0.19793 0.75753,0.41025 1.14439,0.59019c0.79712,0.38146 1.58524,0.24111 2.40035,0.47683c0.30779,0.0946 0.58603,0.26687 0.80791,0.50022c0.10163,0.1181 0.21039,0.22987 0.32568,0.33468c0.22492,0.17634 0.49482,0.17274 0.76473,0.22312c0.52901,0.09896 0.92487,0.36167 1.06702,0.89068z" fill="#74b140" fill-rule="evenodd"/><path d="M190.97059,181.11407c-0.13799,-0.07895 -0.3064,-0.08335 -0.44831,-0.01169c-0.01439,-0.39946 -0.01439,-0.79712 -0.01439,-1.19838c0,-0.37307 0.0072,-0.74674 0.02159,-1.121c0,-0.11876 0,-0.23932 0,-0.35987c0.009,-0.25911 0.01799,-0.52002 0.03059,-0.77912c0.0072,-0.16194 0.02339,-0.32389 0.02339,-0.48403c0.01439,-0.2825 0.03239,-0.54881 0.05218,-0.82231c0.01439,-0.22312 0.03419,-0.44444 0.05218,-0.66576l0.03959,-0.2843c0.07317,-0.81091 0.16614,-1.61703 0.2789,-2.41834c0.12236,0.14395 0.31309,0.19433 0.58839,0.03059c0.2753,-0.16374 0.39406,-0.47863 0.48763,-0.76653c0.17994,-0.55061 0.29869,-1.6878 0.99865,-1.86774c0.5758,-0.14575 0.8439,0.53261 0.87269,0.97885c0.00304,0.33858 -0.03809,0.67611 -0.12236,1.00404c0.78452,-0.64237 2.00089,-1.45029 0.70535,-2.18443c-0.40698,-0.2112 -0.7258,-0.55999 -0.89968,-0.98425c-0.23752,-0.51462 -0.53081,-0.80971 -1.10661,-0.89968c-0.20608,-0.03033 -0.41432,-0.04357 -0.62258,-0.03959c0.19433,-0.80252 0.41025,-1.59963 0.64237,-2.38775c0.01979,-0.06478 0.03959,-0.12955 0.05758,-0.19253c0.07018,-0.23392 0.14215,-0.46783 0.21592,-0.69995c0.02699,-0.08097 0.05578,-0.17454 0.08457,-0.26091c0.11156,-0.34548 0.22672,-0.69096 0.34548,-1.03283l0.17994,-0.50562l0.17094,-0.46783c0.07737,-0.20333 0.15475,-0.40846 0.23392,-0.61178c0.04678,-0.12056 0.09177,-0.24111 0.13855,-0.35987c0.14215,0.10616 0.2807,0.21053 0.41025,0.31129c1.35312,1.07422 2.46333,2.77282 2.10346,4.54159c0.40306,0 0.73054,-0.33468 0.8529,-0.73414c0.15475,-0.51282 0.0018,-1.07422 -0.11696,-1.57984c-0.02272,-0.08509 -0.00499,-0.17591 0.04808,-0.2462c0.05307,-0.07029 0.13556,-0.11222 0.22362,-0.11367c0.65694,0.09715 1.29861,-0.25328 1.57196,-0.8585c0.27335,-0.60522 0.11204,-1.31833 -0.39518,-1.74698c-0.06148,-0.06196 -0.09087,-0.14886 -0.07961,-0.23542c0.01126,-0.08656 0.0619,-0.16305 0.13719,-0.20722c1.02027,-0.41794 1.73848,-1.35038 1.88213,-2.44354c0.00297,-0.09984 0.05748,-0.19101 0.14402,-0.24088c0.08654,-0.04987 0.19275,-0.05132 0.28063,-0.00383c0.91768,0.39226 1.9757,0.90328 2.39675,1.87494c0.23932,0.54701 0.02879,1.35852 0.65137,1.64642c0.73774,0.34008 1.48268,-0.23752 2.03508,-0.67296c0.08249,-0.07566 0.20135,-0.09665 0.30477,-0.05382c0.10341,0.04283 0.17263,0.14172 0.17746,0.25355c0.23729,2.17595 0.84589,4.29511 1.79936,6.26538c0.06205,0.11104 0.04279,0.24977 -0.04715,0.33971c-0.08994,0.08994 -0.22868,0.1092 -0.33971,0.04715c-0.51282,-0.2735 -1.17678,0.41385 -1.61943,0.61538c-0.50922,0.23212 -1.00584,0.19433 -1.53306,0.03959c-0.67656,-0.19793 -1.27215,-0.40486 -1.9793,-0.22492c-0.49311,0.12662 -0.93767,0.39648 -1.27755,0.77553l1.72199,0.03959c0.08812,0.0016 0.17065,0.04348 0.22397,0.11365c0.05333,0.07017 0.07158,0.16089 0.04953,0.24622c-0.16843,0.85505 0.12954,1.73526 0.78272,2.31218c0.06862,0.07216 0.09478,0.1748 0.06908,0.271c-0.0257,0.0962 -0.09957,0.17211 -0.19503,0.20043c-0.46963,0.14755 -0.94107,0.32748 -1.4197,0.44264c-0.24434,0.08652 -0.51519,0.0525 -0.73054,-0.09177c-0.24111,-0.18174 -0.38326,-0.49662 -0.51642,-0.77732c-0.05003,0.08844 -0.11044,0.17059 -0.17994,0.24471c-0.29869,0.31489 -0.70535,0.36167 -1.09941,0.49482c-0.556,0.18713 -1.19658,0.71255 -0.88709,1.36752c0.04836,0.088 0.04737,0.19485 -0.00261,0.28194c-0.04998,0.0871 -0.14173,0.14186 -0.24211,0.14451c-1.09904,0.10614 -2.10648,0.65832 -2.78721,1.52766c-0.14755,0.18174 -0.40486,0.05398 -0.47143,-0.12596c-0.00097,-0.00596 -0.00097,-0.01204 0,-0.01799c0.01439,0.36527 0.14035,0.74494 0.10976,1.10481c-0.03774,0.35628 -0.18411,0.69235 -0.41925,0.96266c-0.57939,0.70715 -1.47548,0.93927 -2.21142,1.42689c-1.73998,1.14979 -0.11336,3.43318 -1.14979,4.95545c-0.04504,0.07477 -0.12175,0.1249 -0.20832,0.13611c-0.08657,0.01122 -0.17352,-0.0177 -0.23613,-0.07853c-0.39775,-0.46965 -0.63982,-1.05124 -0.69275,-1.66441c-0.02879,-0.37247 0.11876,-0.73234 0.09177,-1.09221c-0.01014,-0.15865 -0.09926,-0.30161 -0.23725,-0.38057z" fill="#74b140" fill-rule="evenodd"/><path d="M193.0018,187.10325c-0.48583,-0.13315 -0.97166,-0.17454 -1.36212,-0.52361c-0.25911,-0.23032 -0.41745,-0.51282 -0.76113,-0.62438c-0.04498,-0.37067 -0.08637,-0.74134 -0.12416,-1.11561c0.19433,0.06478 0.38146,0.14935 0.53981,0.21772c0.34545,0.14979 0.67668,0.33046 0.98965,0.53981c0.2771,0.18713 0.53081,0.45704 0.82771,0.60818c0.39586,0.19973 0.86549,0.10976 1.29554,0.10616c0.43005,-0.0036 0.8583,0.01439 1.28834,0.04139c0.22312,0.01619 0.40126,0.31309 0.19973,0.48223c-0.41025,0.34548 -0.88349,0.72514 -1.43949,0.77373c-0.5758,0.04858 -0.93027,-0.35627 -1.45389,-0.50562z" fill="#74b140" fill-rule="evenodd"/><path d="M197.02518,187.60168c0.52901,0.01439 1.20917,0.29689 0.87089,0.94107c-0.05005,0.0875 -0.14393,0.14065 -0.24471,0.13855c-0.58659,-0.03779 -1.05803,0.13315 -1.61943,0.22492c-0.26821,0.05621 -0.54777,0.00726 -0.78092,-0.13675c-0.08302,-0.01192 -0.15772,-0.05684 -0.20717,-0.12459c-0.04945,-0.06774 -0.06948,-0.15258 -0.05553,-0.23528c0.00673,-0.11634 0.07544,-0.2201 0.17994,-0.2717c0.16914,-0.21232 0.35268,-0.46783 0.60639,-0.53981c0.36707,-0.10616 0.87449,-0.0072 1.25056,0.0036z" fill="#74b140" fill-rule="evenodd"/><path d="M202.79214,147.31394c0.35028,-0.40666 0.71015,-0.80611 1.07962,-1.19838c0.03925,0.05663 0.07299,0.11688 0.10076,0.17994c0.2699,0.59919 -0.15834,1.05982 -0.76473,1.05982c-0.13939,-0.00335 -0.27834,-0.01718 -0.41565,-0.04139z" fill="#74b140" fill-rule="evenodd"/><path d="M205.12281,145.72382c-0.10634,0.04356 -0.22843,0.01926 -0.30999,-0.0617c-0.09777,-0.0776 -0.2019,-0.14682 -0.31129,-0.20693c0.2711,-0.2771 0.54521,-0.5524 0.82231,-0.82591c0,0.04318 0,0.08637 0,0.13315c-0.0072,0.23392 -0.02339,0.46604 -0.02339,0.69995c-0.00134,0.11491 -0.0713,0.21787 -0.17764,0.26143z" fill="#74b140" fill-rule="evenodd"/><path d="M205.76109,144.20464c0.33828,-0.32209 0.68196,-0.64057 1.02744,-0.95546c0.02159,-0.01799 0.04318,-0.03599 0.06298,-0.05578c0.31849,-0.2861 0.64057,-0.5668 0.96626,-0.8457l0.14395,-0.12236c0.31309,-0.26391 0.62978,-0.52721 0.95006,-0.78992l0.10976,-0.08817c0.35268,-0.2831 0.70895,-0.5614 1.06882,-0.8349c0.66037,0.14935 1.4053,0.12775 1.89473,0.69815c0.06853,0.07227 0.09483,0.17482 0.06956,0.27115c-0.02527,0.09633 -0.09854,0.17276 -0.19372,0.20208l-1.43949,0.40126c-0.37787,0.10436 -0.82771,0.16554 -1.16599,0.37247c-0.30589,0.18533 -0.41025,0.53261 -0.75753,0.66576c-0.2915,0.11336 -0.58659,0.05578 -0.88709,0.05578c-0.62078,0.0108 -0.39946,0.31309 -0.62078,0.70175c-0.11531,0.19631 -0.31425,0.32894 -0.53981,0.35987c-0.23212,0.04858 -0.46783,-0.03599 -0.68916,-0.03599z" fill="#74b140" fill-rule="evenodd"/><path d="M221.85459,156.37553c-0.34363,0.06405 -0.67397,0.18572 -0.97705,0.35987c-0.26811,0.17094 -0.44444,0.42465 -0.67296,0.63877c-0.43365,0.40306 -0.86729,0.43005 -1.43949,0.40306c-1.4161,-0.06658 -2.05127,1.33693 -2.49572,2.46513c-0.38326,0.97166 -0.80252,1.94511 -1.72379,2.51911c-0.08787,0.04949 -0.19531,0.04905 -0.28278,-0.00114c-0.08747,-0.05019 -0.14205,-0.14273 -0.14367,-0.24357c-0.04179,-0.51834 -0.36745,-0.9708 -0.8457,-1.17498c-0.24471,-0.10256 -0.53981,-0.13135 -0.71975,-0.34008c-0.22312,-0.24651 -0.14575,-0.50742 -0.12775,-0.80432c0.02879,-0.52182 -0.17094,-0.92667 -0.39406,-1.38911c-0.31309,-0.64777 -0.50022,-1.27035 -0.41025,-1.9901c0.08637,-0.69995 0.37067,-1.35312 0.64957,-1.99369c0.32029,-0.75753 0.70355,-1.55465 0.71975,-2.39855c0.01619,-0.98965 -0.54341,-1.76158 -1.06342,-2.5461c-0.44984,-0.68196 -0.2951,-1.58344 -0.8565,-2.18803c-0.51715,-0.56266 -1.33037,-0.74297 -2.03688,-0.45164c-0.07584,0.0431 -0.16728,0.049 -0.24803,0.016c-0.08075,-0.033 -0.14188,-0.10125 -0.16583,-0.18514c-0.07312,-0.31008 -0.01239,-0.63663 0.16734,-0.89968l-0.66576,-0.21772c-0.09516,-0.02876 -0.16858,-0.10486 -0.19389,-0.201c-0.02532,-0.09614 0.00109,-0.19853 0.06974,-0.27043c0.11349,-0.14213 0.25041,-0.26383 0.40486,-0.35987c-0.30276,-0.27133 -0.47827,-0.65691 -0.48403,-1.06342c0.00098,-0.15561 0.12689,-0.28152 0.2825,-0.2825l1.77057,-0.009l-0.23392,-0.87809c-0.02348,-0.08516 -0.00605,-0.17639 0.04717,-0.24689c0.05323,-0.0705 0.1362,-0.11225 0.22453,-0.11298c0.98785,0.10976 1.72019,-0.20693 2.60728,-0.5668c0.62258,-0.25731 1.33333,-0.24471 1.99729,-0.23032c0.59225,-0.00985 1.18059,0.09779 1.73099,0.31669c0.2826,0.12625 0.53896,0.30448 0.75573,0.52541l0.16194,0.17994c0.14575,0.11516 0.19433,0.11516 0.14575,0c0.02879,-0.06478 -0.04858,-0.2717 -0.03959,-0.35987c0.04318,-0.47503 0.49662,-0.75573 0.92847,-0.80791c0.43185,-0.05218 0.8457,0.08817 1.27755,-0.02159c0.37787,-0.09896 0.72694,-0.30769 1.09761,-0.43904c0.5596,-0.19793 1.25596,-0.26091 1.7022,0.20513c0.19727,0.20078 0.30832,0.47066 0.30949,0.75213c0.90148,-0.17994 2.41475,-0.44804 2.5317,0.53981c0.02559,0.20874 -0.04605,0.41767 -0.19433,0.5668c0.18291,-0.00549 0.36543,0.02006 0.53981,0.07557c0.09518,0.02932 0.16844,0.10575 0.19372,0.20208c0.02527,0.09633 -0.00104,0.19888 -0.06956,0.27115c-0.52541,0.54161 0.2843,0.22492 0.5542,0.14215c0.28492,-0.08623 0.58257,-0.12275 0.87989,-0.10796c0.59361,0.02973 1.16169,0.25065 1.61943,0.62978c0.07316,0.07133 0.10147,0.17695 0.07377,0.2753c-0.21412,0.86729 -1.24876,0.5776 -1.704,1.16239c-0.2699,0.34548 -0.22492,0.87089 -0.2897,1.28295c-0.06993,0.38287 -0.22152,0.74619 -0.44444,1.06522c-0.5668,0.93927 0.24651,2.23481 -0.2753,3.21546c-0.22368,0.44343 -0.75956,0.62844 -1.20917,0.41745l-0.21592,0.30049c0.70685,0.64286 0.77841,1.72975 0.16194,2.45973c-0.05305,0.06494 -0.1368,0.09652 -0.21952,0.08277c0.07992,0.08594 0.09314,0.21447 0.03239,0.31489c-0.5776,1.04183 -1.76338,1.15339 -2.79441,1.39631z" fill="#74b140" fill-rule="evenodd"/><path d="M225.2104,160.83975c-0.51822,-0.04139 -1.25775,-0.15834 -1.57984,-0.61718c-0.35987,-0.51462 -0.03059,-1.37831 -0.5614,-1.78677c-0.15493,-0.2149 -0.15493,-0.50484 0,-0.71975c0.2933,-0.50382 0.66756,-0.35088 0.96806,-0.2735c0.26343,0.06937 0.49905,0.21829 0.67476,0.42645c0.30769,0.35627 0.49842,0.54341 0.99865,0.41025c0.67476,-0.17994 1.22896,-0.78272 1.9793,-0.65137c0.5578,0.10256 0.48943,0.55061 0.39766,1.00225c-0.12416,0.61718 -0.2735,1.37651 -0.83131,1.74718c-0.61513,0.36855 -1.33204,0.53059 -2.04588,0.46244z" fill="#74b140" fill-rule="evenodd"/><path d="M237.93427,148.24317c-0.09365,-0.02551 -0.16782,-0.09703 -0.1967,-0.1897c-0.13675,-0.65497 -0.91768,-0.93747 -0.78452,-1.7058c0.11336,-0.67116 0.71975,-0.95726 1.33693,-0.8511c0.0814,0.01237 0.15,0.06725 0.17994,0.14395c0.2879,-0.11696 0.5668,-0.45344 0.74674,-0.59559c0.21121,-0.17355 0.45637,-0.30103 0.71975,-0.37427c0.54881,-0.14575 1.139,-0.05218 1.67881,0.08277c0.38686,0.09717 0.90868,0.21053 1.00225,0.67116c0.07197,0.37787 -0.25191,0.75933 -0.57939,0.8565c-0.32748,0.09717 -0.65497,-0.01619 -0.96626,-0.10076c-0.21053,-0.05218 -0.30589,-0.11876 -0.52002,0c-0.2735,0.15834 -0.16734,0.23752 -0.16734,0.51822c0.009,0.556 -0.08817,1.15159 -0.5704,1.50067c-0.2879,0.20693 -0.75033,0.2915 -1.01664,0c-0.12112,-0.13186 -0.16897,-0.31519 -0.12775,-0.48943l-0.01439,0.01619c-0.13135,0.16014 -0.30949,0.30769 -0.45524,0.45344c-0.07189,0.06522 -0.17208,0.08925 -0.26573,0.06374z" fill="#74b140" fill-rule="evenodd"/><path d="M260.44733,192.17566c-0.69455,3.19027 -3.57354,5.0832 -5.19296,7.75346c-0.44729,0.707 -0.75909,1.49108 -0.91947,2.31218c-0.16914,0.97166 0.07197,1.88213 0.21952,2.8358c0.18174,1.18758 0.05578,2.66126 -1.16239,3.25505c-0.30769,0.15115 -0.66217,0.20153 -0.91947,0.47863c-0.25731,0.2771 -0.2951,0.68736 -0.32568,1.04723c-0.05038,0.59559 -0.06118,1.16779 -0.2753,1.73639c-0.46783,1.24876 -1.37831,2.33018 -2.18982,3.37021c-0.73054,0.93747 -1.29014,2.18982 -2.30858,2.85199c-0.65317,0.42825 -1.54025,0.47683 -2.29779,0.53981c-0.67296,0.05398 -1.61403,0.19433 -2.2546,-0.08997c-0.42645,-0.18893 -0.65317,-0.81511 -0.83311,-1.20557c-0.26956,-0.58774 -0.48809,-1.19757 -0.65317,-1.82275c-0.40126,-1.45928 -0.77553,-2.90237 -1.21277,-4.36525c-0.43725,-1.46288 -0.74494,-2.97975 -0.52361,-4.5074c0.12416,-0.8601 0.36347,-1.7022 0.2789,-2.57849c-0.07362,-0.73681 -0.32023,-1.44581 -0.71975,-2.06927c-0.35807,-0.5578 -0.97346,-0.96086 -1.24336,-1.56725c-0.2699,-0.60639 -0.03779,-1.20018 0.17994,-1.77957c0.13855,-0.35447 0.31129,-0.78812 0.17994,-1.16959c-0.14395,-0.41925 -0.59379,-0.41025 -0.94467,-0.53981c-0.46064,-0.16914 -0.81511,-0.49842 -1.19478,-0.79712c-0.2897,-0.22852 -0.64237,-0.51822 -1.04183,-0.42465c-0.2735,0.06478 -0.48943,0.29689 -0.71975,0.45704c-0.50382,0.35088 -1.05443,0.37787 -1.64822,0.33828c-0.46064,-0.03239 -0.90508,-0.07737 -1.34952,0.08277c-0.2951,0.10616 -0.5668,0.2717 -0.8511,0.40306c-0.46963,0.21412 -0.96806,0.35807 -1.48268,0.21412c-0.58839,-0.16374 -1.04003,-0.61538 -1.45209,-1.04003c-0.53981,-0.556 -1.11201,-1.10121 -1.60683,-1.695c-0.45164,-0.53981 -0.43545,-1.07782 -0.61538,-1.72019c-0.17094,-0.58479 -0.71975,-0.78632 -1.07962,-1.23256c-0.29648,-0.34693 -0.31729,-0.85161 -0.05038,-1.22177c0.18174,-0.2861 0.43545,-0.50202 0.44984,-0.86189c0.00744,-0.38458 -0.21268,-0.73735 -0.5614,-0.89968c-0.08628,-0.05149 -0.13948,-0.14424 -0.14035,-0.24471c-0.05345,-1.0135 0.31449,-2.00401 1.01664,-2.73683c0.19973,-0.20333 0.44804,-0.35088 0.64417,-0.5524c0.2717,-0.2789 0.21592,-0.54161 0.2717,-0.87629c0.05476,-0.3383 0.31359,-0.60717 0.64957,-0.67476c0.41205,-0.11516 0.82051,-0.04858 1.10481,-0.43185c0.21412,-0.2915 0.2825,-0.68736 0.35987,-1.03463c0.15475,-0.71975 0.31669,-1.43049 0.87449,-1.95951c1.38551,-1.31174 3.42779,-0.77193 5.12279,-0.89068c0.64431,-0.05379 1.26958,-0.24523 1.83355,-0.5614c0.34908,-0.17994 0.72694,-0.38506 1.1318,-0.38506c0.86189,-0.01799 1.08861,0.72334 1.43049,1.34952c0.2915,0.53621 0.76113,0.61178 1.30094,0.79172c0.36795,0.12135 0.71022,0.30987 1.00944,0.556c0.40486,0.32568 0.80971,0.82771 1.33873,0.94287c0.26811,0.05758 0.75753,-0.02879 0.92127,-0.2933c-0.19613,-0.49303 0.21232,-1.00764 0.74134,-1.06342c0.48043,-0.05398 0.99505,0.17454 1.43949,0.30589l1.60323,0.47143c0.81511,0.24111 1.74898,0.41925 2.34817,1.01664c0.59919,0.59739 1.09941,1.33333 1.60863,2.00809c0.56361,0.7331 1.0793,1.50183 1.54385,2.30139c0.43904,0.77732 0.74494,1.61043 1.15879,2.39675c0.43365,0.82411 1.14979,1.32613 1.704,2.04588c0.43185,0.5596 0.69635,1.50787 1.43949,1.72919c0.66037,0.19433 1.39271,-0.2735 1.9793,-0.50562c0.556,-0.21952 1.1336,-0.35987 1.70939,-0.12775c0.13248,0.05368 0.20697,0.19506 0.17634,0.33468z" fill="#74b140" fill-rule="evenodd"/><path d="M259.87333,207.19314c-0.13635,0.58288 -0.35379,1.14375 -0.64597,1.66621c-0.33288,0.65137 -0.74674,1.19658 -0.91228,1.92712c-0.12416,0.54701 -0.20513,1.1174 -0.51462,1.59963c-0.38146,0.59199 -1.54205,1.20917 -1.90193,0.23212c-0.30949,-0.8511 -0.16194,-1.93611 0.47503,-2.57849c-0.22498,-0.82345 -0.05551,-1.70468 0.45884,-2.38596c0.35447,-0.45884 0.8457,-0.63518 1.28295,-1.02564c0.43725,-0.39046 0.70175,-0.93027 0.96086,-1.43949c0.06586,-0.10835 0.19551,-0.15998 0.31782,-0.12659c0.12232,0.0334 0.20773,0.14375 0.20939,0.27054c-0.03419,0.64597 0.39046,1.18398 0.2699,1.86054z" fill="#74b140" fill-rule="evenodd"/><path d="M228.86311,166.12628c0.04648,-0.12396 0.18046,-0.19134 0.30769,-0.15475c0.12719,-0.02821 0.25966,-0.02137 0.38326,0.01979c0.08644,0.02588 0.15406,0.0935 0.17994,0.17994c0.21854,0.09225 0.41395,0.23174 0.5722,0.40846c0.30769,0.35807 0.31669,0.86189 0.38506,1.30814c0.05398,0.34728 0.12596,0.68016 -0.26271,0.83311c-0.55767,0.19965 -1.13583,0.33664 -1.72379,0.40846c-0.34728,0.04678 -0.70895,-0.009 -0.8439,-0.39766c-0.13495,-0.38866 0.11876,-0.68196 0.36887,-0.92847c0.14074,-0.12065 0.24589,-0.27743 0.30409,-0.45344c0.00649,-0.17343 0.00228,-0.3471 -0.0126,-0.52002c0.00816,-0.19325 0.07051,-0.38031 0.17994,-0.53981c0.04609,-0.06186 0.1006,-0.11697 0.16194,-0.16374z" fill="#74b140" fill-rule="evenodd"/><path d="M231.16989,165.62965c-0.21366,-0.49439 -0.26408,-1.04403 -0.14395,-1.56904c0.06658,-0.30589 0.22132,-0.52182 0.55061,-0.53981c0.63877,-0.03599 0.76833,0.15654 1.01484,0.77732c0.26091,0.65857 0.83311,1.11561 1.09221,1.78497c0.13315,0.32326 0.18683,0.67374 0.15654,1.02204c-0.01799,0.17634 -0.07917,0.32748 -0.11336,0.50742c-0.06298,0.31849 0.01439,0.58299 0.04678,0.89968c0.06478,0.61178 -0.25911,0.74854 -0.77373,0.94287c-0.43904,0.16194 -1.4161,0.49123 -1.76518,-0.01799c-0.31309,-0.47143 0.14395,-1.37471 0.35987,-1.79936c0.25551,-0.48223 0.42285,-0.81691 0.07557,-1.29014c-0.19357,-0.21946 -0.3614,-0.46034 -0.50022,-0.71795z" fill="#74b140" fill-rule="evenodd"/><path d="M276.56062,193.63134c0.11033,0.28623 0.14924,0.59503 0.11336,0.89968c0.01605,0.31149 -0.00509,0.62378 -0.06298,0.93027c-0.12596,0.50022 -0.69455,0.74494 -1.07962,0.32029c-0.20153,-0.22132 -0.22312,-0.51822 -0.22312,-0.80252c-0.0126,-0.42465 0,-0.8511 0,-1.27755c0.00076,-0.04588 0.01249,-0.09092 0.03419,-0.13135c0.0052,-0.06193 0.0312,-0.12027 0.07377,-0.16554c0.34188,-0.38146 0.93207,-0.20513 1.14439,0.22672z" fill="#74b140" fill-rule="evenodd"/><path d="M286.11164,197.39921c-0.10616,0.2771 -0.20333,0.53801 -0.32209,0.82951c-0.11876,0.2915 -0.23752,0.58299 -0.35987,0.87089c-0.21232,-0.32389 -0.42285,-0.64777 -0.63697,-0.97166l-0.8421,-1.27575c-0.25731,-0.38866 -0.50382,-0.82591 -0.96266,-0.99685c-0.29689,-0.0036 -0.40126,-0.47503 -0.07377,-0.5524h0.02159c0.02432,-0.00858 0.0498,-0.01344 0.07557,-0.01439c0.71435,-0.12056 1.24336,0.30229 1.71299,0.81691c0.43591,0.45885 0.89919,0.89089 1.38731,1.29374z" fill="#74b140" fill-rule="evenodd"/><path d="M252.70107,150.09755c0.69995,-0.83131 1.43949,-1.63382 2.15924,-2.45073l1.07962,-1.22357c0.2843,-0.32568 0.5524,-0.69995 0.91228,-0.95366c0.48043,-0.33648 1.17498,-0.37247 1.43949,0.23212c0.26451,0.60459 -0.11876,1.18398 -0.60459,1.52406c-0.8457,0.59199 -3.13989,2.63067 -2.17903,3.72648c0.34728,0.39586 0,1.50787 -0.20693,1.58164c-0.15475,0.32928 -0.99685,0.24831 -0.96986,0.17994c-0.574,-0.13855 -0.64057,-0.15295 -1.07962,-0.5758c-0.556,-0.53441 -1.11021,-1.35312 -0.55061,-2.04048z" fill="#74b140" fill-rule="evenodd"/><path d="M289.29472,179.904c-0.0012,0.37307 -0.006,0.74614 -0.01439,1.1192c0,0.08097 0,0.16194 0,0.24111c-0.009,0.32029 -0.02159,0.63697 -0.03599,0.95546c-0.0072,0.15295 -0.02339,0.30589 -0.02339,0.45704c-0.0108,0.21232 -0.02519,0.42465 -0.03959,0.63518c-0.01979,0.2825 -0.03959,0.54881 -0.06298,0.82231c-0.0126,0.04498 -0.0126,0.08817 -0.0126,0.13315c-0.03839,0.44144 -0.08277,0.88049 -0.13315,1.31713c-0.03719,0.33588 -0.07857,0.67056 -0.12416,1.00404c-0.06238,0.45104 -0.13015,0.90088 -0.20333,1.34952c-0.0108,0.07377 -0.02339,0.14755 -0.03599,0.22132c-0.05758,0.33348 -0.11756,0.66576 -0.17994,0.99685c-0.02699,0.14035 -0.05218,0.2807 -0.08097,0.41925c-0.03419,0.17454 -0.07018,0.34368 -0.10616,0.52361c-0.05758,0.2771 -0.11876,0.5542 -0.17994,0.82951c-0.02879,0.12596 -0.05938,0.25191 -0.08997,0.37787c-0.06118,0.24471 -0.11876,0.48223 -0.17994,0.71975l-0.07557,0.30589c-0.17754,0.68496 -0.37007,1.36452 -0.5776,2.03868c-0.11036,0.35987 -0.22552,0.71975 -0.34548,1.07962v0.01439c-0.12116,0.35987 -0.24471,0.71975 -0.37067,1.07962c-0.54849,-0.68853 -0.99901,-1.44969 -1.33873,-2.2618c-0.33435,-0.82657 -0.56171,-1.69248 -0.67656,-2.57669c-0.12955,-0.89248 -0.23032,-1.79217 -0.64597,-2.59468c-0.34548,0.2789 -0.79532,0.43725 -1.1372,0.03419c-0.24831,-0.2915 -0.33828,-0.72694 -0.50382,-1.06882c-0.20293,-0.41536 -0.43503,-0.81582 -0.69455,-1.19838c-0.2933,-0.43185 -0.59919,-1.01844 -1.18038,-0.94646c-0.33648,0.04139 -0.5614,0.16554 -0.91228,0.05038c-0.23233,-0.07785 -0.4385,-0.21862 -0.59559,-0.40666c-0.17966,0.65529 -0.51837,1.25607 -0.98605,1.74898c-0.39406,0.38866 -0.87629,0.62798 -1.17498,1.10841c-0.23794,0.41806 -0.3977,0.87598 -0.47143,1.35132c-0.30409,1.59244 -0.20693,3.70669 -1.92352,4.529c-0.13518,0.07502 -0.30546,0.03067 -0.38686,-0.10076c-0.71975,-1.35852 -1.43949,-2.72424 -1.93611,-4.18172c-0.39046,-1.1354 -0.43185,-2.47412 -0.89968,-3.59873c-0.03059,0.16194 -0.06118,0.32568 -0.08997,0.48763c-0.02501,0.0971 -0.10083,0.17292 -0.19793,0.19793c-0.61898,0.08457 -1.00764,-0.26811 -1.33873,-0.75753c-0.46064,-0.68196 -0.8583,-1.4107 -1.27395,-2.13045l-0.04498,0.009c-0.93027,0.09896 -1.86054,0.20693 -2.79261,0.29869c-0.59379,0.05578 -1.17858,0.07377 -1.67341,-0.30409c-0.29689,-0.21952 -0.50382,-0.54881 -0.8367,-0.70895c-0.1062,-0.0497 -0.21795,-0.08655 -0.33288,-0.10976c0.65497,0.89608 0.8511,2.40395 2.01349,2.63607c0.14995,0.04201 0.2382,0.19685 0.19793,0.34728c-1.33873,3.32702 -4.98783,4.30408 -8.16191,4.99683c-0.08533,0.02205 -0.17606,0.0038 -0.24622,-0.04953c-0.07017,-0.05333 -0.11204,-0.13586 -0.11365,-0.22397c-0.13135,-1.4125 -1.65182,-2.24561 -2.24021,-3.46018c-0.35627,-0.73234 -0.54881,-1.51866 -0.95006,-2.23841c-0.33108,-0.59019 -1.15519,-2.02068 -1.9883,-1.87134c-0.14989,0.03628 -0.3021,-0.05048 -0.34728,-0.19793c-0.20513,-0.78452 -1.25416,-1.24876 -0.93927,-2.18083c0.15834,-0.47503 0.62978,-0.81331 0.89968,-1.22357c0.29692,-0.4604 0.48804,-0.98091 0.5596,-1.52406c-1.06882,-0.02879 -2.13764,-0.05398 -3.20646,-0.08457c-0.75213,-0.01439 -1.36572,-0.12955 -1.65182,-0.89968c-0.12056,-0.32568 -0.12775,-0.68736 -0.25191,-1.01124c-0.09896,-0.26091 -0.47683,-0.87449 -0.79712,-0.33468c-0.10076,0.15475 -0.01799,0.52541 0,0.69455c0.05398,0.50202 0.05038,1.18938 -0.46963,1.47548c-0.60998,0.33648 -1.04723,-0.32029 -1.23436,-0.80072c-0.18713,-0.48043 -0.24831,-1.01124 -0.47143,-1.47728c-0.23752,-0.49482 -0.67296,-0.78812 -1.10301,-1.09941l-1.4125,-1.02204c-0.08637,-0.06298 -0.565,-0.49842 -0.65677,-0.46783c-0.35088,0.11516 0.03779,0.43005 0.14215,0.5524c0.68607,0.78321 1.53059,1.41185 2.47772,1.84435c0.09523,0.05914 0.14714,0.16845 0.13281,0.27962c-0.01433,0.11118 -0.09227,0.20374 -0.19938,0.2368c-0.44984,0.08457 -0.5524,0.66756 -0.71975,1.02744c-0.13791,0.32334 -0.37728,0.59302 -0.68196,0.76833c-0.64545,0.34564 -1.4421,0.21912 -1.94871,-0.30949c-0.07728,-0.08197 -0.09926,-0.20165 -0.05615,-0.30573c0.04311,-0.10408 0.14328,-0.17317 0.25588,-0.1765c0.18862,-0.00471 0.37621,-0.02944 0.5596,-0.07377c0.17686,-0.03275 0.33384,-0.13353 0.43725,-0.2807l-0.15115,-0.46424c-0.15834,-0.13675 -0.55061,-0.11516 -0.75573,-0.24651c-0.40486,-0.26271 -0.60998,-0.72334 -0.78992,-1.14979c-0.09778,-0.29245 -0.24843,-0.56447 -0.44444,-0.80252c-0.11967,-0.14225 -0.27488,-0.25028 -0.44984,-0.31309c-0.32209,-0.08637 -0.41025,0.14035 -0.59019,0.34548c-0.24651,0.2771 -0.52361,0.53981 -0.92847,0.35987c-0.36887,-0.16554 -0.52721,-0.62078 -0.5614,-0.99505c-0.01439,-0.15295 0.04678,-0.88349 -0.09717,-0.96086c-0.10436,-0.05398 -0.14935,0.52361 -0.14935,0.58299c0,0.33828 0.01979,0.73594 -0.17994,1.02924c-0.07821,0.11978 -0.19125,0.21272 -0.32389,0.26631c-0.06653,0.02375 -0.13633,0.0371 -0.20693,0.03959l0.17994,0.09896c0.08476,0.05204 0.13641,0.14436 0.13641,0.24381c0,0.09946 -0.05165,0.19178 -0.13641,0.24381c-0.44014,0.31062 -0.84129,0.6731 -1.19478,1.07962c-0.33828,0.42105 -0.38866,0.86369 -0.58119,1.34053c-0.29689,0.71075 -1.4161,0.93387 -2.09626,0.94287c-0.83131,0.01799 -1.47908,-0.50382 -1.78317,-1.25955c-0.34188,-0.8493 -0.14935,-1.76518 0.08817,-2.61987h-0.16014c-0.35987,-0.01439 -0.35987,-0.57939 0,-0.565c0.6016,0.03059 1.20475,-0.00258 1.79936,-0.09896c0.48043,-0.08097 1.11201,-0.17274 1.48268,-0.51102c0.5776,-0.52182 0.03239,-1.00225 -0.35987,-1.38731l-1.19838,-1.18038c-0.07728,-0.08197 -0.09926,-0.20165 -0.05615,-0.30573c0.04311,-0.10408 0.14328,-0.17317 0.25588,-0.1765c0.76113,0 1.54745,-0.01439 2.27799,-0.25371c0.87089,-0.2843 1.28115,-0.87269 1.65182,-1.67341c0.5578,-1.21097 1.72019,-1.9883 3.03373,-1.61943c0.07715,-0.02952 0.16418,-0.01582 0.22852,0.03599c0.33828,0.24651 0.64957,0.42465 1.02924,0.15475c0.13135,-0.09537 0.22672,-0.23752 0.36887,-0.32928c0.32804,-0.18836 0.69361,-0.30202 1.07062,-0.33288c0.43545,-0.05758 0.89788,-0.05398 1.31533,-0.20153c0.70535,-0.24831 0.8349,-0.82231 0.71975,-1.48987c-0.14935,-0.87449 0.39046,-1.44129 1.22896,-1.59424c0.53261,-0.09896 1.07062,-0.05398 1.58884,-0.23392c0.41198,-0.15066 0.78209,-0.3974 1.07962,-0.71975c-0.91429,-0.21044 -1.87327,-0.09724 -2.71344,0.32029c-0.2825,0.14215 -0.54161,0.32928 -0.86729,0.19613c-0.27434,-0.14064 -0.48846,-0.37586 -0.60279,-0.66217c-0.2699,-0.5722 -0.19433,-1.25056 0.03239,-1.82275c0.12357,-0.31305 0.29208,-0.60642 0.50022,-0.87089c0.23392,-0.30229 0.59739,-0.64237 0.66936,-1.00225c0.07197,-0.35987 -0.21592,-0.74314 -0.60099,-0.53981c-0.2006,0.13134 -0.35776,0.31918 -0.45164,0.53981c-0.15383,0.34174 -0.33432,0.67084 -0.53981,0.98425c-0.25731,0.34908 -0.58659,0.64957 -0.80791,1.02384c-0.30409,0.51282 -0.25911,0.92667 0.02339,1.42869c0.38866,0.69275 0.05758,1.18938 -0.05938,1.91992c-0.11516,0.66037 -0.25371,1.30454 -0.89968,1.63202c-0.49303,0.25011 -1.05982,0.13315 -1.30814,-0.38326c-0.16014,-0.33648 -0.15115,-0.73414 -0.24471,-1.09401c-0.08126,-0.31396 -0.20219,-0.61629 -0.35987,-0.89968c-0.49303,0.62078 -0.8403,1.53486 -1.75258,1.50427c-0.98965,-0.03239 -1.58164,-1.25955 -1.77237,-2.08906c-0.22852,-0.99145 0.25011,-1.66441 1.09941,-2.11785c1.07782,-0.5758 1.81196,-1.31533 2.56949,-2.2672c0.83792,-1.02638 1.61882,-2.09802 2.33917,-3.21006c0.51822,-0.81691 1.14619,-1.53666 2.20782,-1.43949c1.1408,0.10256 2.18982,0.87809 3.26944,1.21457c0.93027,0.2879 2.05307,0.37247 2.85019,0.98245c0.2897,0.22852 0.64057,0.5596 0.50562,0.94826c-0.12613,0.30758 -0.37647,0.54747 -0.68916,0.66037c-0.87809,0.36167 -1.65721,-0.12775 -2.49752,-0.30769c0.33376,0.79034 1.05651,1.3486 1.90553,1.47188c0.25744,0.04028 0.52027,0.02989 0.77373,-0.03059c0.41745,-0.10616 0.55061,-0.45344 0.71975,-0.81331l0.81871,-1.72019c0.13855,-0.2879 0.62978,-0.07917 0.51642,0.21772c-0.01078,0.02166 -0.02039,0.04389 -0.02879,0.06658v0.0126c-0.08637,0.24651 0.10076,0.36347 0.565,0.34908c0.03419,-0.05578 0.07018,-0.11156 0.10616,-0.16734c0.06436,-0.12946 0.11154,-0.26678 0.14035,-0.40846c0.06143,-0.20919 0.1536,-0.4081 0.2735,-0.59019c0.25568,-0.32924 0.60319,-0.57531 0.99865,-0.70715c1.18398,-0.45704 2.5515,-0.60279 3.81105,-0.79892c0.0108,-0.54161 0.47683,-0.88529 1.04003,-0.86549c0.41886,0.04782 0.83145,0.1401 1.23076,0.2753l1.1408,0.2771c-0.37427,-0.72154 -0.75393,-1.44309 -1.07962,-2.18083c-0.22852,-0.51822 -0.31849,-1.20737 0.23032,-1.56725c0.60459,-0.39946 1.17678,0.17454 1.43949,0.68016c0.21412,0.41205 0.39586,0.75393 0.79532,1.02024c0.20884,0.13505 0.42994,0.25012 0.66037,0.34368c-0.05398,-0.59739 0.07018,-1.24696 0.63697,-1.4125c-0.06312,-0.23437 -0.08683,-0.4776 -0.07018,-0.71975c0.00195,-0.10029 0.05629,-0.19223 0.1432,-0.24232c0.08691,-0.05008 0.1937,-0.05099 0.28145,-0.0024c0.60818,0.35627 1.26675,0.72694 1.9703,0.70355c-0.53801,-0.53621 -1.30634,-0.97346 -1.21457,-1.82995c0.08817,-0.75753 0.76833,-1.09401 1.43949,-1.25955c-0.26091,-0.52361 -0.06118,-1.19298 0.34908,-1.63562c0.68556,-0.74134 1.74358,-1.17678 2.65586,-1.55645c0.2807,-0.11516 0.565,-0.22672 0.8475,-0.33648c0.36707,-0.14035 0.66396,-0.2879 0.67656,-0.69815c0.009,-0.32389 -0.06298,-0.68556 0.11696,-0.97885c0.10846,-0.22097 0.3391,-0.3551 0.58479,-0.34008c0.2903,0.23992 0.5788,0.47983 0.86549,0.71975c0.2819,0.23992 0.5614,0.47983 0.8385,0.71975l0.01979,0.01619c0.2747,0.24351 0.54701,0.49003 0.81691,0.73954l0.01979,0.01799c0.2711,0.25191 0.53921,0.50622 0.80432,0.76293c0.11696,0.12236 0.23932,0.23932 0.35987,0.35987c2.55253,2.52299 4.82345,5.31579 6.7728,8.32925c0.21592,0.33228 0.42705,0.66696 0.63338,1.00404c-0.00034,0.00419 -0.00034,0.0084 0,0.0126c0.20393,0.33468 0.40426,0.67116 0.60099,1.00944l0.01619,0.02519c0.19253,0.33288 0.38866,0.67116 0.5686,1.00944l0.02339,0.03959c0.17994,0.33468 0.35987,0.67116 0.53981,1.00944l0.03059,0.05578c0.17094,0.33288 0.33828,0.66936 0.50382,1.00584l0.03599,0.07377c0.16074,0.33348 0.31789,0.66756 0.47143,1.00225c0.01439,0.03239 0.03059,0.06298 0.04498,0.09357c0.14935,0.32928 0.2951,0.66217 0.43904,0.99505l0.05038,0.11516c0.13855,0.32568 0.2717,0.65317 0.40486,0.98245l0.05578,0.14035c0.12955,0.32209 0.25191,0.64777 0.37427,0.97346c0.01979,0.05398 0.04139,0.10796 0.06118,0.16374c0.11876,0.31849 0.23032,0.63877 0.34188,0.96086l0.06658,0.18893c0.10556,0.31549 0.20873,0.63158 0.30949,0.94826c0.02339,0.07197 0.04858,0.14215 0.07018,0.21412c0.10076,0.30949 0.18893,0.62258 0.2807,0.93387c0.02339,0.08097 0.04858,0.16014 0.07018,0.23932c0.08817,0.30409 0.16914,0.60998 0.25011,0.91768c0.02519,0.08997 0.05038,0.17814 0.07377,0.2699c0.07737,0.29869 0.14935,0.59919 0.22132,0.89968c0.02339,0.09896 0.04858,0.19793 0.07197,0.29689c0.06838,0.2951 0.13135,0.59019 0.19433,0.88709c0.02339,0.10796 0.04858,0.21412 0.07018,0.32029c0.05938,0.2897 0.11336,0.57939 0.16914,0.87089c0.02159,0.11516 0.04498,0.23212 0.06658,0.34908c0.05038,0.2825 0.09717,0.5686 0.14215,0.8547c0.01979,0.12416 0.04318,0.24831 0.06298,0.37247c0.04139,0.2807 0.07917,0.5632 0.11876,0.8457c0.01799,0.13135 0.03779,0.26091 0.05398,0.39226c0.03599,0.2807 0.06658,0.5614 0.09717,0.8421c0.01619,0.13495 0.03239,0.2699 0.04678,0.40486c0.02879,0.2807 0.05218,0.5632 0.07557,0.8439c0.0108,0.13855 0.02519,0.2753 0.03599,0.41385c0.02339,0.2915 0.03959,0.58659 0.05758,0.88169c0.0072,0.12775 0.02339,0.25371 0.02339,0.38146c0.01619,0.31849 0.03599,0.63697 0.03599,0.95546c0.0036,0.10616 0.0126,0.21232 0.0126,0.31669c0,0.43185 0.0006,0.8589 0.0018,1.28115zM253.82747,173.93731c-0.19331,-0.23238 -0.45038,-0.40314 -0.73954,-0.49123c-0.19793,-0.07377 -0.40666,-0.11696 -0.60639,-0.19073c-0.15668,-0.04834 -0.30223,-0.12723 -0.42825,-0.23212c-0.05182,-0.04544 -0.08153,-0.11102 -0.08153,-0.17994c0,-0.06892 0.02971,-0.1345 0.08153,-0.17994c0.09537,-0.39406 0.5722,-1.04903 -0.14755,-1.16239c-0.39046,-0.05578 -0.87089,0.10976 -1.25955,0.17994c-0.41145,0.07437 -0.82231,0.15295 -1.23256,0.23572c-0.06932,-0.06591 -0.16685,-0.0931 -0.26027,-0.07254c-0.09342,0.02056 -0.17053,0.08617 -0.20577,0.1751c-0.32928,0.88889 -0.77732,1.90732 -0.86909,2.85919c-0.05938,0.62438 0.45704,0.96806 1.03823,0.73054c0.42105,-0.17094 0.73954,-0.48043 1.19118,-0.61178c0.51642,-0.14755 0.96446,-0.16194 1.39631,0.17994c0.47503,0.37607 1.30994,0.33468 1.84975,0.08997c0.53621,-0.24651 0.62438,-0.87449 0.2735,-1.32973zM257.63852,175.70069c0.06478,0.64777 0.62978,1.15699 1.16059,1.47368c0.45884,0.2735 1.10121,0.39046 1.49527,-0.10436c0.39406,-0.49482 0.05038,-0.93027 -0.26451,-1.32073c-0.12416,-0.15295 -0.19253,-0.03059 -0.08817,-0.25551c0.03419,-0.05758 0.13855,-0.11876 0.17994,-0.17094c0.08267,-0.09982 0.14392,-0.21558 0.17994,-0.34008c0.07183,-0.24086 0.00229,-0.50165 -0.17994,-0.67476c-0.30769,-0.2717 -0.70535,-0.2861 -0.96626,-0.65677c-0.25118,-0.3976 -0.36496,-0.86663 -0.32389,-1.33513c0.2815,-0.22769 0.36747,-0.62015 0.20693,-0.94467c-0.22852,-0.49482 -0.86189,-0.63158 -1.35312,-0.49482c-1.37831,0.38506 -1.4233,1.95231 -0.68016,2.93296c0.19253,0.25191 0.90688,0.76473 0.8385,1.1246c-0.05398,0.2789 -0.23212,0.44444 -0.20513,0.76653zM261.96059,182.50588h-0.05038c-0.64175,0.03481 -1.28298,-0.0772 -1.87494,-0.32748c-0.66217,-0.30769 -1.02564,-0.79352 -1.50607,-1.30814c-0.12236,-0.13135 -0.39406,-0.42285 -0.60818,-0.30229c-0.24831,0.13855 0.02159,0.55061 0.10256,0.70355c0.17604,0.34142 0.38197,0.66657 0.61538,0.97166c0.44804,0.5542 1.05443,1.04903 1.79936,1.07962c0.62438,0.02519 1.27395,-0.24291 1.52226,-0.81691z" fill="#74b140" fill-rule="nonzero"/></g><text transform="translate(177.47499,250.19823) scale(0.44661,0.44661)" font-size="40" xml:space="preserve" fill="#000000" fill-rule="nonzero" stroke="none" stroke-width="1" stroke-linecap="butt" stroke-linejoin="miter" stroke-miterlimit="10" stroke-dasharray="" stroke-dashoffset="0" font-family="Arcade" font-weight="normal" text-anchor="start" style="mix-blend-mode: normal"><tspan x="0" dy="0">Browser</tspan></text></g></g></svg>