<svg version="1.1" xmlns="http://www.w3.org/2000/svg" xmlns:xlink="http://www.w3.org/1999/xlink" width="172.00001" height="109.54284" viewBox="0,0,172.00001,109.54284"><g transform="translate(-154,-125.2286)"><g data-paper-data="{&quot;isPaintingLayer&quot;:true}" stroke-miterlimit="10" stroke-dasharray="" stroke-dashoffset="0" style="mix-blend-mode: normal"><path d="M158.91429,234.77144c-2.71409,0 -4.91429,-1.12101 -4.91429,-2.50383v-104.53518c0,-1.38283 2.2002,-2.50383 4.91429,-2.50383h162.17143c2.71409,0 4.91429,1.12101 4.91429,2.50383v104.53518c0,1.38283 -2.2002,2.50383 -4.91429,2.50383z" fill="#fbff00" fill-rule="nonzero" stroke="none" stroke-width="0" stroke-linecap="butt" stroke-linejoin="miter"/><text transform="translate(168.108,222.92034) scale(0.17973,0.2396)" font-size="40" xml:space="preserve" fill="#000000" fill-rule="nonzero" stroke="none" stroke-width="1" stroke-linecap="butt" stroke-linejoin="miter" stroke-miterlimit="10" stroke-dasharray="" stroke-dashoffset="0" font-family="Arcade" font-weight="normal" text-anchor="start" style="mix-blend-mode: normal"><tspan x="0" dy="0">Use scratch username</tspan></text><g fill-rule="evenodd"><g><path d="M228.72009,184.30029c0.59327,0.29663 1.85397,0.96406 0.07416,3.48546c-1.77981,2.52139 -6.89675,3.0405 -7.49002,3.0405c-2.29892,0.07416 -5.11695,0.07416 -8.23161,-0.96406c-9.04735,-2.96635 -9.12151,-12.68113 -6.22933,-14.23846c2.81803,-1.55733 4.07873,4.44952 8.15745,8.08329c1.77981,1.63149 3.93041,2.22476 5.71022,2.59555c2.52139,0.44495 7.34171,-2.37308 8.00913,-2.00228z" fill="#ffab19" stroke="#001026" stroke-width="1.2" stroke-linecap="round" stroke-linejoin="round"/><path d="M210.32875,178.29344c1.18654,2.00228 3.48546,4.82031 3.48546,4.82031c0,0 -2.74387,-0.66743 -4.3012,0.59327c-1.2607,0.96406 -0.96406,2.59555 -0.81575,3.11466c-0.96406,-0.96406 -2.1506,-2.29892 -2.89219,-4.89447c-0.74159,-2.59555 0,-5.71022 1.48317,-6.15517c1.48317,-0.29663 1.85397,0.81575 3.0405,2.52139z" fill="#ffffff" stroke="none" stroke-width="1" stroke-linecap="butt" stroke-linejoin="miter"/></g><path d="M232.42802,192.01279c-1.33486,0.8899 -5.93269,4.15288 -11.79122,6.00685l-0.29663,0.07416c-0.29663,0.07416 -0.44495,0.44495 -0.29663,0.74159c1.2607,1.77981 3.55962,5.33942 -0.51911,6.60012c-3.93041,1.2607 -11.27211,-9.19567 -8.15745,-11.93954c1.40901,-1.03822 2.66971,-0.51911 3.33714,-0.22248c0.37079,0.14832 0.74159,0.14832 1.11238,0.07416c0.8899,-0.29663 2.52139,-0.8899 3.78209,-1.55733c3.18882,-1.63149 3.93041,-2.29892 5.41358,-3.4113c1.48317,-1.11238 4.89447,-3.85625 7.63834,-1.48317c2.37308,2.00228 1.03822,4.22704 -0.22248,5.11695z" fill="#ffab19" stroke="#001026" stroke-width="1.2" stroke-linecap="round" stroke-linejoin="round"/><path d="M244.21925,176.58779c0.37079,0.29663 4.89447,5.63606 6.37764,4.3012c1.77981,-1.55733 4.22704,-4.59784 6.89675,-2.1506c2.66971,2.44724 -2.37308,6.60012 -4.52368,7.7125c-5.11695,2.29892 -9.26983,-2.07644 -10.15973,-3.26298c-0.8899,-1.18654 -2.44724,-3.18882 -2.44724,-5.11695c0.07416,-2.07644 2.59555,-2.59555 3.85625,-1.48317z" fill="#ffab19" stroke="#001026" stroke-width="1.2" stroke-linecap="round" stroke-linejoin="round"/><g><path d="M244.29341,193.86676c1.55733,1.40901 4.96863,4.3012 4.96863,4.3012c0,0 10.60469,-1.85397 10.60469,3.48546c0,3.18882 -5.33942,3.93041 -12.53281,3.26298c-0.44495,-0.07416 -0.8899,-0.22248 -1.2607,-0.51911c-1.63149,-1.40901 -6.30348,-5.5619 -9.26983,-8.45409c-4.37536,-4.3012 -8.00913,-7.11923 -8.00913,-7.11923c-6.30348,-6.15517 -1.18654,-8.75072 0.81575,-12.31034c1.85397,-3.0405 2.66971,-2.44724 7.11923,-1.55733c2.52139,0.37079 4.00457,0.59327 5.63606,0.51911c2.44724,-0.07416 2.00228,3.48546 1.33486,5.33942c0,0 -1.03822,2.74387 -2.00228,4.15288c-1.18654,1.70565 -2.07644,2.81803 -2.96635,3.48546z" fill="#ffab19" stroke="#001026" stroke-width="1.2" stroke-linecap="round" stroke-linejoin="round"/><path d="M238.06408,188.37902c0,0 -1.11238,-0.8899 -2.29892,-2.00228c-1.48317,-1.33486 -2.96635,-2.44724 -1.48317,-4.74615c1.33486,-1.77981 2.59555,-4.15288 5.93269,-2.00228c3.18882,2.00228 1.77981,3.85625 1.77981,3.85625c-1.63149,3.33714 -3.93041,4.89447 -3.93041,4.89447z" fill="#ffffff" stroke="none" stroke-width="1" stroke-linecap="butt" stroke-linejoin="miter"/></g><path d="M226.86613,182.29801c1.63149,2.07644 4.15288,4.67199 0.96406,6.8226c-4.37536,2.44724 -8.00913,-4.96863 -8.75072,-7.56418c-0.66743,-2.29892 1.2607,-3.78209 2.89219,-5.04279c3.18882,-2.29892 5.85853,-4.37536 8.82488,-3.26298c3.70793,1.33486 1.03822,4.3012 -0.81575,5.63606c-1.11238,0.81575 -2.22476,1.70565 -3.0405,2.22476c-0.22248,0.37079 -0.29663,0.81575 -0.07416,1.18654z" fill="#ffab19" stroke="#001026" stroke-width="1.2" stroke-linecap="round" stroke-linejoin="round"/><g><path d="M250.2261,132.31508c0.22248,-0.14832 0.59327,-0.07416 0.66743,0.22248l1.92812,7.93498c0,0 4.74615,3.48546 6.15517,5.93269c2.37308,4.07873 2.44724,7.41586 2.44724,7.41586c0,0 5.26526,1.55733 6.15517,5.78437c0.8899,4.22704 -2.37308,12.23618 -16.3149,14.98005c-13.94183,2.74387 -25.13978,-1.03822 -30.40505,-9.49231c-5.26526,-8.45409 3.0405,-18.53966 2.59555,-17.94639l-1.55733,-13.2744c-0.07416,-0.29663 0.29663,-0.51911 0.59327,-0.37079l8.9732,5.85853c0,0 3.33714,-1.2607 6.8226,-1.40901c2.07644,-0.14832 3.85625,0 5.5619,0.29663z" fill="#ffab19" stroke="#001026" stroke-width="1.2" stroke-linecap="butt" stroke-linejoin="miter"/><path d="M261.20158,154.11772c0,0 5.11695,1.33486 6.00685,5.5619c0.8899,4.22704 -2.66971,11.86538 -16.46322,14.53509c-17.94639,3.70793 -26.47464,-6.97091 -21.50601,-14.83173c4.96863,-7.93498 13.49687,-1.18654 19.7262,-1.63149c5.33942,-0.37079 5.93269,-5.04279 12.23618,-3.63377z" fill="#ffffff" stroke="none" stroke-width="1" stroke-linecap="butt" stroke-linejoin="miter"/><path d="M237.84161,162.0527c0,-0.29663 0.29663,-0.51911 0.59327,-0.44495c1.40901,0.51911 5.41358,1.70565 9.8631,2.00228c4.00457,0.22248 6.37764,0 7.49002,-0.22248c0.37079,-0.07416 0.66743,0.29663 0.51911,0.66743c-0.66743,2.00228 -3.48546,7.56418 -11.27211,7.11923c-6.74844,-0.74159 -7.41586,-5.48774 -7.19339,-9.12151z" fill="#ffffff" stroke="#001026" stroke-width="1.2" stroke-linecap="round" stroke-linejoin="round"/><path d="M274.84677,154.93347c-3.48546,2.81803 -8.82488,2.89219 -8.82488,2.89219" fill="none" stroke="#001026" stroke-width="1.2" stroke-linecap="round" stroke-linejoin="round"/><path d="M273.88271,163.23923c-4.67199,0.37079 -7.56418,-1.03822 -7.56418,-1.03822" fill="none" stroke="#001026" stroke-width="1.2" stroke-linecap="round" stroke-linejoin="round"/><path d="M248.66877,155.82337c1.55733,0 3.18882,0.14832 3.26298,0.66743c0.07416,1.03822 -1.03822,3.11466 -2.22476,3.18882c-1.33486,0.14832 -4.44952,-1.70565 -4.44952,-2.89219c-0.07416,-0.8899 1.92812,-0.96406 3.4113,-0.96406z" fill="#001026" stroke="#001026" stroke-width="1.2" stroke-linecap="round" stroke-linejoin="round"/><path d="M215.29738,154.71099c0,0 6.37764,2.07644 8.9732,4.37536" fill="none" stroke="#001026" stroke-width="1.2" stroke-linecap="round" stroke-linejoin="round"/><path d="M224.49305,161.6819c-3.18882,1.2607 -8.67656,0.44495 -8.67656,0.44495" fill="none" stroke="#001026" stroke-width="1.2" stroke-linecap="round" stroke-linejoin="round"/><g><path d="M257.41949,147.14681c2.1506,3.33714 2.22476,7.11923 0.14832,8.45409c-2.07644,1.33486 -5.48774,-0.22248 -7.7125,-3.55962c-2.1506,-3.33714 -2.22476,-7.11923 -0.14832,-8.45409c2.07644,-1.40901 5.5619,0.22248 7.7125,3.55962z" fill="#ffffff" stroke="#001026" stroke-width="1.2" stroke-linecap="round" stroke-linejoin="round"/><path d="M257.12285,151.37385c0,0.81575 -0.59327,1.48317 -1.33486,1.48317c-0.74159,0 -1.33486,-0.66743 -1.33486,-1.48317c0,-0.81575 0.59327,-1.48317 1.33486,-1.48317c0.74159,0 1.33486,0.66743 1.33486,1.48317" fill="#001026" stroke="none" stroke-width="1" stroke-linecap="butt" stroke-linejoin="miter"/></g><g><path d="M239.02814,149.22325c2.22476,3.26298 2.07644,7.26755 0.07416,8.67656c-2.44724,1.40901 -5.71022,0.37079 -7.93498,-2.89219c-2.29892,-3.26298 -2.44724,-7.49002 -0.14832,-9.12151c2.29892,-1.70565 5.78437,0.07416 8.00913,3.33714z" fill="#ffffff" stroke="#001026" stroke-width="1.2" stroke-linecap="round" stroke-linejoin="round"/><path d="M238.58319,153.52445c0,0.81575 -0.59327,1.48317 -1.33486,1.48317c-0.74159,0 -1.33486,-0.66743 -1.33486,-1.48317c0,-0.81575 0.59327,-1.48317 1.33486,-1.48317c0.74159,0.07416 1.33486,0.66743 1.33486,1.48317" fill="#001026" stroke="none" stroke-width="1" stroke-linecap="butt" stroke-linejoin="miter"/></g></g></g></g></g></svg>